<svg width="15" height="15" viewBox="0 0 15 15" fill="none" xmlns="http://www.w3.org/2000/svg">
<g clip-path="url(#clip0_5_605)">
<path d="M8.6123 0.607544H5.6123C5.06002 0.607544 4.6123 1.05526 4.6123 1.60754V2.10754C4.6123 2.65982 5.06002 3.10754 5.6123 3.10754H8.6123C9.16458 3.10754 9.6123 2.65982 9.6123 2.10754V1.60754C9.6123 1.05526 9.16458 0.607544 8.6123 0.607544Z" stroke="black" stroke-linecap="round" stroke-linejoin="round"/>
<path d="M9.8623 1.60754H11.3623C11.6275 1.60754 11.8819 1.7129 12.0694 1.90043C12.2569 2.08797 12.3623 2.34232 12.3623 2.60754V12.6075C12.3623 12.8727 12.2569 13.1271 12.0694 13.3146C11.8819 13.5021 11.6275 13.6075 11.3623 13.6075H2.8623C2.59708 13.6075 2.34273 13.5021 2.15519 13.3146C1.96766 13.1271 1.8623 12.8727 1.8623 12.6075V2.60754C1.8623 2.34232 1.96766 2.08797 2.15519 1.90043C2.34273 1.7129 2.59708 1.60754 2.8623 1.60754H4.3623" stroke="black" stroke-linecap="round" stroke-linejoin="round"/>
</g>
<defs>
<clipPath id="clip0_5_605">
<rect width="14" height="14" fill="white" transform="translate(0.112305 0.107544)"/>
</clipPath>
</defs>
</svg>
