<svg width="20" height="19" viewBox="0 0 20 19" fill="none" xmlns="http://www.w3.org/2000/svg">
<path id="Star 8" d="M3.5 0.999929V5.99993M1 3.49993H6M4 13.4999V17.4999M2 15.4999H6M9.50849 7.28329V7.28329C7.38987 7.88861 6.33056 8.19127 6.17827 8.72618C6.12732 8.90517 6.12732 9.09483 6.17827 9.27382C6.33056 9.80873 7.38987 10.1114 9.50849 10.7167V10.7167C9.93301 10.838 10.1453 10.8986 10.3062 11.0314C10.3641 11.0791 10.4164 11.1332 10.4622 11.1926C10.5895 11.3579 10.6431 11.5725 10.7504 12.0015V12.0015C11.365 14.4602 11.6724 15.6895 12.2398 15.8424C12.4102 15.8884 12.5898 15.8884 12.7602 15.8424C13.3276 15.6895 13.635 14.4602 14.2496 12.0015V12.0015C14.3569 11.5725 14.4105 11.3579 14.5378 11.1926C14.5836 11.1332 14.6359 11.0791 14.6938 11.0314C14.8547 10.8986 15.067 10.838 15.4915 10.7167V10.7167C17.6101 10.1114 18.6694 9.80873 18.8217 9.27382C18.8727 9.09483 18.8727 8.90517 18.8217 8.72618C18.6694 8.19127 17.6101 7.88861 15.4915 7.28329V7.28329C15.067 7.162 14.8547 7.10135 14.6938 6.96861C14.6359 6.92088 14.5836 6.86679 14.5378 6.80737C14.4105 6.64208 14.3569 6.42755 14.2496 5.99848V5.99848C13.635 3.53981 13.3276 2.31047 12.7602 2.15756C12.5898 2.11162 12.4102 2.11162 12.2398 2.15756C11.6724 2.31047 11.365 3.53981 10.7504 5.99848V5.99848C10.6431 6.42755 10.5895 6.64208 10.4622 6.80737C10.4164 6.86679 10.3641 6.92088 10.3062 6.96861C10.1453 7.10135 9.93301 7.162 9.50849 7.28329Z" stroke="black" stroke-width="2" stroke-linecap="round" stroke-linejoin="round"/>
</svg>
